<svg width="49" height="24" viewBox="0 0 49 24" fill="none" xmlns="http://www.w3.org/2000/svg">
<path d="M48.3525 15.6658C46.9933 10.2907 45.6804 9.77586 41.3299 8.82338L40.6451 8.65348C37.8083 8.02021 32.7061 4.19486 31.0277 2.93348C29.2587 1.62662 27.1158 0.924354 24.9164 0.930707H16.3132C14.1148 0.930707 13.6103 1.21388 12.9152 1.91407L12.8329 2.00675L10.1917 5.66734C9.84157 6.02259 9.5481 6.37784 9.28553 6.69704C8.64196 7.47962 8.21463 7.99962 7.42691 8.14893L3.26176 8.66378C1.28473 9.03962 0.0593872 10.198 0.0593872 11.7426V19.2079C0.0593872 19.4128 0.140752 19.6092 0.285582 19.754C0.430412 19.8988 0.626844 19.9802 0.831664 19.9802H4.73939C4.9748 21.0014 5.54944 21.9127 6.36951 22.5652C7.18958 23.2178 8.20663 23.573 9.25464 23.573C10.3026 23.573 11.3197 23.2178 12.1398 22.5652C12.9598 21.9127 13.5345 21.0014 13.7699 19.9802H31.5117C31.7471 21.0014 32.3217 21.9127 33.1418 22.5652C33.9619 23.2178 34.9789 23.573 36.0269 23.573C37.0749 23.573 38.092 23.2178 38.912 22.5652C39.7321 21.9127 40.3067 21.0014 40.5422 19.9802H45.0008C45.5275 19.9791 46.047 19.8579 46.5199 19.6258C46.9927 19.3937 47.4064 19.0569 47.7296 18.641C48.0527 18.225 48.2767 17.7409 48.3847 17.2253C48.4926 16.7098 48.4816 16.1764 48.3525 15.6658ZM10.48 7.67526C10.7426 7.35605 10.9948 7.02655 11.3295 6.71249L11.3861 6.59407L14.0273 2.93348C14.362 2.59883 14.5833 2.44952 16.2875 2.44952H24.8855C26.7531 2.44838 28.5713 3.04963 30.0701 4.16397C32.3045 5.84239 34.1889 7.14496 35.8055 8.11289H10.063L10.48 7.67526ZM9.25978 22.0396C8.64882 22.0396 8.05157 21.8584 7.54357 21.519C7.03557 21.1796 6.63963 20.6971 6.40582 20.1327C6.17201 19.5682 6.11084 18.9471 6.23003 18.3479C6.34923 17.7486 6.64343 17.1982 7.07545 16.7662C7.50747 16.3342 8.0579 16.04 8.65713 15.9208C9.25636 15.8016 9.87747 15.8627 10.4419 16.0965C11.0064 16.3304 11.4888 16.7263 11.8283 17.2343C12.1677 17.7423 12.3489 18.3395 12.3489 18.9505C12.3489 19.7698 12.0234 20.5555 11.4441 21.1348C10.8648 21.7142 10.0791 22.0396 9.25978 22.0396ZM36.0321 22.0396C35.4211 22.0396 34.8238 21.8584 34.3158 21.519C33.8078 21.1796 33.4119 20.6971 33.1781 20.1327C32.9443 19.5682 32.8831 18.9471 33.0023 18.3479C33.1215 17.7486 33.4157 17.1982 33.8477 16.7662C34.2798 16.3342 34.8302 16.04 35.4294 15.9208C36.0286 15.8016 36.6498 15.8627 37.2142 16.0965C37.7787 16.3304 38.2611 16.7263 38.6006 17.2343C38.94 17.7423 39.1212 18.3395 39.1212 18.9505C39.1212 19.7698 38.7957 20.5555 38.2164 21.1348C37.6371 21.7142 36.8513 22.0396 36.0321 22.0396ZM46.5093 17.6994C46.331 17.9295 46.1023 18.1155 45.8408 18.2432C45.5792 18.3708 45.2918 18.4367 45.0008 18.4357H40.6297C40.4987 17.3068 39.9574 16.2655 39.1088 15.5096C38.2601 14.7538 37.1633 14.3362 36.0269 14.3362C34.8905 14.3362 33.7937 14.7538 32.9451 15.5096C32.0964 16.2655 31.5551 17.3068 31.4241 18.4357H13.8574C13.7264 17.3068 13.1851 16.2655 12.3365 15.5096C11.4879 14.7538 10.3911 14.3362 9.25464 14.3362C8.11821 14.3362 7.0214 14.7538 6.17277 15.5096C5.32414 16.2655 4.78287 17.3068 4.65186 18.4357H1.60394V11.7426C1.60394 10.6563 3.09186 10.2907 3.50374 10.198L7.56077 9.68318H38.7968C39.284 9.89766 39.7887 10.0699 40.3053 10.198L41.0004 10.3525C44.9544 11.2174 45.6701 11.3822 46.8542 16.0622C46.9244 16.3434 46.9298 16.6369 46.87 16.9205C46.8103 17.2041 46.6869 17.4704 46.5093 17.6994Z" fill="#FBB667"/>
</svg>
